C:\Users\jackb\Documents\projects\Masters\adult_control\InputData/emg/ng10220_crop.c3d.mot
nRows=40
nColumns=13

name C:\Users\jackb\Documents\projects\Masters\adult_control\InputData/emg/ng10220_crop.c3d.mot
datacolumns 13
datarows 40
range 5.3750000000 5.3945000000
endheader
time	soleus_r	rect_fem_r	lat_gas_r	med_gas_r	vas_lat_r	vas_med_r	bifemlh_r	semimem_r	tib_ant_r	per_brev_r	ext_dig_r	ext_hal_r
        5.3750000000	        0.9589299768	        0.6727017979	        0.9927190714	        0.9228069942	        0.3267551090	        0.5382251070	        0.9401872606	        0.6832242231	        0.2123025651	        0.9030096301	        0.6701739174	        0.6031573560	
        5.3755000000	        0.9613262553	        0.6668406312	        0.9915456442	        0.9170027820	        0.3219214724	        0.5352364073	        0.9340476020	        0.6781974326	        0.2119639791	        0.9017543458	        0.6693296209	        0.6034288892	
        5.3760000000	        0.9636169649	        0.6608673221	        0.9902909613	        0.9110067153	        0.3171246265	        0.5321331065	        0.9276344783	        0.6729941741	        0.2116198889	        0.9006048045	        0.6684731469	        0.6037550419	
        5.3765000000	        0.9658083303	        0.6547826095	        0.9889560835	        0.9048228785	        0.3123645790	        0.5289145707	        0.9209529277	        0.6676173993	        0.2112702747	        0.8995661637	        0.6676044458	        0.6041382427	
        5.3770000000	        0.9679065405	        0.6485874081	        0.9875427736	        0.8984555626	        0.3076413370	        0.5255803652	        0.9140082686	        0.6620702485	        0.2109151927	        0.8986428526	        0.6667233898	        0.6045805097	
        5.3775000000	        0.9699176927	        0.6422828106	        0.9860535571	        0.8919091361	        0.3029549017	        0.5221302577	        0.9068060942	        0.6563560534	        0.2105547279	        0.8978385985	        0.6658297001	        0.6050834960	
        5.3780000000	        0.9718476927	        0.6358700866	        0.9844915165	        0.8851879835	        0.2983052647	        0.5185642155	        0.8993522591	        0.6504783349	        0.2101889373	        0.8971564229	        0.6649228541	        0.6056485157	
        5.3785000000	        0.9737021189	        0.6293506780	        0.9828599371	        0.8782965365	        0.2936924050	        0.5148824006	        0.8916528615	        0.6444407953	        0.2098178014	        0.8965986689	        0.6640020318	        0.6062765520	
        5.3790000000	        0.9754860789	        0.6227261949	        0.9811619352	        0.8712393411	        0.2891162862	        0.5110851630	        0.8837142249	        0.6382473024	        0.2094411963	        0.8961670786	        0.6630661660	        0.6069682432	
        5.3795000000	        0.9772041015	        0.6159984126	        0.9794001715	        0.8640210912	        0.2845768523	        0.5071730384	        0.8755428775	        0.6319018691	        0.2090588901	        0.8958628852	        0.6621140967	        0.6077238486	
        5.3800000000	        0.9788600853	        0.6091692720	        0.9775767492	        0.8566466187	        0.2800740281	        0.5031467487	        0.8671455331	        0.6254086339	        0.2086705600	        0.8956868646	        0.6611447533	        0.6085432093	
        5.3805000000	        0.9804572951	        0.6022408850	        0.9756932993	        0.8491208554	        0.2756077272	        0.4990072043	        0.8585290748	        0.6187718418	        0.2082758210	        0.8956393150	        0.6601572940	        0.6094257170	
        5.3810000000	        0.9819983790	        0.5952155412	        0.9737511100	        0.8414487807	        0.2711778634	        0.4947555032	        0.8497005459	        0.6119958284	        0.2078742557	        0.8957199944	        0.6591511663	        0.6103703033	
        5.3815000000	        0.9834853758	        0.5880957139	        0.9717511601	        0.8336353687	        0.2667843584	        0.4903929296	        0.8406671422	        0.6050850096	        0.2074654362	        0.8959280774	        0.6581260763	        0.6113754471	
        5.3820000000	        0.9849196938	        0.5808840587	        0.9696940491	        0.8256855509	        0.2624271420	        0.4859209507	        0.8314361995	        0.5980438815	        0.2070489350	        0.8962621560	        0.6570818749	        0.6124391876	
        5.3825000000	        0.9863020592	        0.5735834030	        0.9675799117	        0.8176042059	        0.2581061522	        0.4813412153	        0.8220151715	        0.5908770253	        0.2066243251	        0.8967202550	        0.6560183992	        0.6135591363	
        5.3830000000	        0.9876324624	        0.5661967315	        0.9654083908	        0.8093961812	        0.2538213380	        0.4766555520	        0.8124115987	        0.5835891080	        0.2061911774	        0.8972998322	        0.6549353146	        0.6147324904	
        5.3835000000	        0.9889101596	        0.5587271673	        0.9631786790	        0.8010663364	        0.2495726682	        0.4718659652	        0.8026330718	        0.5761848801	        0.2057490558	        0.8979977707	        0.6538320016	        0.6159560525	
        5.3840000000	        0.9901337574	        0.5511779532	        0.9608896090	        0.7926195855	        0.2453601429	        0.4669746273	        0.7926871988	        0.5686691705	        0.2052975142	        0.8988103882	        0.6527075220	        0.6172262607	
        5.3845000000	        0.9913013400	        0.5435524322	        0.9585397662	        0.7840609146	        0.2411838055	        0.4619838655	        0.7825815861	        0.5610468787	        0.2048360935	        0.8997334735	        0.6515606700	        0.6185392289	
        5.3850000000	        0.9924105784	        0.5358540339	        0.9561275889	        0.7753953650	        0.2370437551	        0.4568961477	        0.7723238419	        0.5533229645	        0.2043643222	        0.9007623247	        0.6503900625	        0.6198907947	
        5.3855000000	        0.9934588049	        0.5280862736	        0.9536514414	        0.7666279877	        0.2329401607	        0.4517140652	        0.7619216002	        0.5455024343	        0.2038817177	        0.9018917670	        0.6491942305	        0.6212765701	
        5.3860000000	        0.9944430570	        0.5202527599	        0.9511096632	        0.7577637918	        0.2288732732	        0.4464403152	        0.7513825505	        0.5375903339	        0.2033877889	        0.9031161482	        0.6479716972	        0.6226919892	
        5.3865000000	        0.9953601090	        0.5123572066	        0.9485006026	        0.7488077137	        0.2248434288	        0.4410776835	        0.7407144595	        0.5295917498	        0.2028820378	        0.9044293303	        0.6467210384	        0.6241323418	
        5.3870000000	        0.9962065058	        0.5044034383	        0.9458226432	        0.7397646146	        0.2208510425	        0.4356290363	        0.7299251824	        0.5215118162	        0.2023639594	        0.9058246927	        0.6454409241	        0.6255927883	
        5.3875000000	        0.9969786088	        0.4963953892	        0.9430742318	        0.7306392910	        0.2168965956	        0.4300973226	        0.7190226663	        0.5133557220	        0.2018330391	        0.9072951538	        0.6441301478	        0.6270683566	
        5.3880000000	        0.9976726419	        0.4883370926	        0.9402539045	        0.7214364844	        0.2129806230	        0.4244855826	        0.7080149476	        0.5051287180	        0.2012887483	        0.9088332091	        0.6427876453	        0.6285539252	
        5.3885000000	        0.9982847182	        0.4802326660	        0.9373603050	        0.7121608875	        0.2091037022	        0.4187969562	        0.6969101434	        0.4968361218	        0.2007305392	        0.9104309772	        0.6414125029	        0.6300441987	
        5.3890000000	        0.9988108339	        0.4720862985	        0.9343921896	        0.7028171472	        0.2052664440	        0.4130346896	        0.6857164359	        0.4884833192	        0.2001578405	        0.9120802398	        0.6400039548	        0.6315336895	
        5.3895000000	        0.9992468375	        0.4639022440	        0.9313484242	        0.6934098682	        0.2014694832	        0.4072021387	        0.6744420520	        0.4800757617	        0.1995700565	        0.9137724616	        0.6385613655	        0.6330167411	
        5.3900000000	        0.9995883942	        0.4556848179	        0.9282279787	        0.6839436144	        0.1977134677	        0.4013027685	        0.6630952388	        0.4716189600	        0.1989665676	        0.9154988005	        0.6370841977	        0.6344876133	
        5.3905000000	        0.9998309651	        0.4474383919	        0.9250299189	        0.6744229099	        0.1939990471	        0.3953401486	        0.6516842362	        0.4631184764	        0.1983467349	        0.9172501521	        0.6355719650	        0.6359406017	
        5.3910000000	        0.9999698082	        0.4391673830	        0.9217533929	        0.6648522379	        0.1903268609	        0.3893179461	        0.6402172502	        0.4545799125	        0.1977099076	        0.9190172437	        0.6340241779	        0.6373701416	
        5.3915000000	        1.0000000000	        0.4308762378	        0.9183976116	        0.6552360387	        0.1866975273	        0.3832399156	        0.6287024277	        0.4460088924	        0.1970554287	        0.9207907544	        0.6324402902	        0.6387708764	
        5.3920000000	        0.9999164732	        0.4225694167	        0.9149618230	        0.6455787071	        0.1831116332	        0.3771098865	        0.6171478348	        0.4374110401	        0.1963826409	        0.9225614265	        0.6308196551	        0.6401376911	
        5.3925000000	        0.9997140770	        0.4142513806	        0.9114452862	        0.6358845908	        0.1795697260	        0.3709317472	        0.6055614386	        0.4287919541	        0.1956908901	        0.9243201534	        0.6291614907	        0.6414657122	
        5.3930000000	        0.9993876703	        0.4059265801	        0.9078472466	        0.6261579890	        0.1760723052	        0.3647094298	        0.5939510896	        0.4201571827	        0.1949795299	        0.9260580250	        0.6274648561	        0.6427502746	
        5.3935000000	        0.9989322472	        0.3975994485	        0.9041669138	        0.6164031550	        0.1726198140	        0.3584468973	        0.5823245051	        0.4115122058	        0.1942479262	        0.9277663282	        0.6257286390	        0.6439868616	
        5.3940000000	        0.9983430817	        0.3892743899	        0.9004034404	        0.6066242989	        0.1692126369	        0.3521481346	        0.5706892499	        0.4028624233	        0.1934954617	        0.9294365124	        0.6239515599	        0.6451710273	
        5.3945000000	        0.9976158633	        0.3809557665	        0.8965559016	        0.5968255936	        0.1658511059	        0.3458171430	        0.5590527191	        0.3942131475	        0.1927215414	        0.9310601426	        0.6221321900	        0.6462983179	
